<?xml version="1.0" encoding="utf-8"?>
<!-- Generator: Adobe Illustrator 18.1.1, SVG Export Plug-In . SVG Version: 6.00 Build 0)  -->
<svg version="1.1" id="Ebene_1" xmlns="http://www.w3.org/2000/svg" xmlns:xlink="http://www.w3.org/1999/xlink" x="0px" y="0px"
	 viewBox="295.9 272.6 250 50" enable-background="new 295.9 272.6 250 50" xml:space="preserve">
<g>
	<g id="logo">
		<path fill="#FFFFFF" d="M373.3,282.6v20.8c0,1.9,0.1,3.6-1.5,4.9c-1.5,1.3-4.1,1.7-6.9,1.7c-4.3,0-8.8-1-8.8-1l-1,2.7
			c0,0,6.3,1.3,10.9,1.4c3.9,0.1,7.2-0.8,9.1-2.9c1.5-1.7,2-3.7,1.9-7.1v-20.3H373.3"/>
		<path fill="#FFFFFF" d="M404.3,294.1c-2.8-1.5-6.2-2.3-10-2.3c-3.8,0-7.2,0.8-10,2.3l0,0c-3.6,1.9-5.4,4.8-5.4,8.4
			c0,3.6,1.8,6.4,5.4,8.4c2.9,1.5,6.2,2.3,10,2.3c3.8,0,7.2-0.8,10-2.3c3.6-1.9,5.4-4.8,5.4-8.4C409.6,298.8,407.9,296,404.3,294.1
			 M402.1,308.7c-2.2,1.3-4.8,1.9-7.8,1.9c-3.1,0-5.8-0.6-7.9-1.8l0,0c-2.6-1.5-3.9-3.5-3.9-6.3c0-2.7,1.3-4.9,3.9-6.3
			c2.1-1.2,4.8-1.8,7.9-1.8c3.1,0,5.7,0.6,7.9,1.8c2.5,1.5,3.9,3.6,3.9,6.3C406,305.1,404.7,307.2,402.1,308.7z"/>
		<path fill="#FFFFFF" d="M437,294.1c-2.8-1.5-6.2-2.3-10-2.3c-3.8,0-7.2,0.8-10,2.3l0,0c-3.6,1.9-5.4,4.8-5.4,8.4
			c0,3.6,1.8,6.4,5.4,8.4c2.9,1.5,6.2,2.3,10,2.3c3.8,0,7.2-0.8,10-2.3c3.6-1.9,5.4-4.8,5.4-8.4C442.3,298.8,440.5,296,437,294.1
			 M434.8,308.7c-2.2,1.3-4.8,1.9-7.8,1.9c-3.1,0-5.8-0.6-7.9-1.8c-2.6-1.5-3.9-3.5-3.9-6.3c0-2.7,1.3-4.9,3.9-6.3
			c2.1-1.2,4.8-1.8,7.9-1.8c3.1,0,5.7,0.6,7.9,1.8c2.5,1.5,3.9,3.6,3.9,6.3C438.7,305.1,437.4,307.2,434.8,308.7z"/>
		<path fill="#FFFFFF" d="M482.1,293.6c-2-1.2-4.6-1.8-7.6-1.8c-3.9,0-7,1.2-9.4,3.6c-2.3-2.4-5.4-3.6-9.4-3.6
			c-3.2,0-5.8,0.7-7.8,1.9c0-0.5,0-1.7,0-1.7h-3.5v20.7h3.5v-14.1c0.3-1,0.9-1.9,2-2.7c1.5-1,3.3-1.5,5.6-1.5c2.1,0,3.8,0.4,5.2,1.3
			c1.7,1,2.5,2.3,2.5,4.2v13h3.5v-13.1c0-1.9,0.8-3.2,2.5-4.2c1.5-0.8,3.3-1.3,5.3-1.3c2.1,0,3.9,0.4,5.3,1.3c1.7,1,2.5,2.3,2.5,4.2
			v13h3.5v-12.6C485.9,297.3,484.6,295,482.1,293.6"/>
		<polyline fill="#FFFFFF" points="488.7,282.6 488.7,312.8 492.3,312.8 492.3,282.6 488.7,282.6 		"/>
		<polyline fill="#FFFFFF" points="531.5,282.6 531.5,305.9 535,305.9 535,282.6 531.5,282.6 		"/>
		<path fill="#FFFFFF" d="M522.3,292c0,0,0,2.9,0,3.5c-3-2.5-7-3.9-11.9-3.9c-3.9,0-7.3,0.7-10.1,2.3c-3.5,1.9-5.2,4.7-5.2,8.4
			c0,3.7,1.8,6.5,5.4,8.4c2.8,1.5,6.2,2.3,10.1,2.3c1.9,0,3.9-0.2,5.6-0.7c2.5-0.7,4.5-1.6,6.1-2.9c0,0.7,0,3.2,0,3.2h3.5V292H522.3
			 M498.8,302.5c0-2.7,1.3-4.9,3.9-6.3c2.1-1.2,4.9-1.8,8-1.8c3.9,0,6.8,0.9,9,2.8c1.9,1.7,2.8,3.8,2.8,6.4c0,0,0,2.3,0,2.5
			c-1.5,1.7-3.7,2.9-6.4,3.8c-1.7,0.5-3.5,0.8-5.3,0.8c-3.2,0-5.8-0.6-8-1.7C500,307.3,498.8,305.2,498.8,302.5z"/>
		<path fill="#FFFFFF" d="M533.3,308.8c-2.5,0-2.8,1.3-2.8,2.1c0,0.8,0.4,2.1,2.8,2.1c2.5,0,2.8-1.3,2.8-2.1
			S535.7,308.8,533.3,308.8z"/>
		<path fill="#FFFFFF" d="M545.9,286.3c0,2.1-1.3,3.8-3.7,3.8s-3.7-1.7-3.7-3.8c0-2.1,1.3-3.8,3.7-3.8S545.9,284.2,545.9,286.3z
			 M539.3,286.3c0,1.7,1.1,3.1,2.9,3.1s2.9-1.3,2.9-3.1c0-1.7-1.1-3.1-2.9-3.1S539.3,284.6,539.3,286.3L539.3,286.3z M543,286.8
			c1.5-0.3,1.3-2.5-0.3-2.5h-1.8v3.9h0.7v-1.3h0.7l1.1,1.3h0.8V288L543,286.8L543,286.8z M542.6,285c0.9,0,0.9,1.3,0,1.3h-1.1V285
			H542.6z"/>
	</g>
	<g id="brandmark">
		<path id="j-green" fill="#7AC143" d="M304.8,297.8l-0.9-0.9c-3-3-3.9-7.2-2.8-11c-3-0.7-5.2-3.3-5.2-6.5c0-3.7,3-6.6,6.6-6.6
			c3.3,0,6,2.4,6.6,5.6c3.6-0.9,7.5,0.1,10.3,2.9l0.4,0.4l-4.9,4.9l-0.4-0.4c-1.6-1.6-4.2-1.6-5.8,0c-1.6,1.6-1.6,4.2,0,5.8l0.9,0.9
			l4.9,4.9l5.2,5.2l-4.9,4.9l-5.2-5.2L304.8,297.8L304.8,297.8z"/>
		<path id="j-orange" fill="#F9A541" d="M310.4,292.4l5.2-5.2l4.9-4.9l0.9-0.9c2.9-2.9,7.2-3.9,10.9-2.8c0.5-3.3,3.3-5.7,6.6-5.7
			c3.7,0,6.6,3,6.6,6.6c0,3.4-2.5,6.2-5.8,6.6c1.1,3.7,0.1,7.9-2.8,10.8l-0.4,0.4l-4.8-4.9l0.4-0.4c1.6-1.6,1.6-4.2,0-5.8
			c-1.6-1.6-4.2-1.6-5.8,0l-0.9,0.9l-4.9,4.9l-5.2,5.2L310.4,292.4L310.4,292.4z"/>
		<path id="j-red" fill="#F44321" d="M332.5,317.1c-3.8,1.1-8,0.3-11-2.7l-0.4-0.4l4.9-4.9l0.4,0.4c1.6,1.6,4.2,1.6,5.8,0
			c1.6-1.6,1.6-4.2,0-5.8l-0.9-0.9l-4.9-4.9l-5.2-5.2l4.9-4.9l5.2,5.2l4.9,4.9l1,1c2.8,2.8,3.8,6.8,2.9,10.4
			c3.3,0.5,5.7,3.3,5.7,6.6c0,3.7-3,6.6-6.6,6.6C335.8,322.5,333.1,320.1,332.5,317.1L332.5,317.1z"/>
		<path id="j-blue" fill="#5091CD" d="M330.6,303.3l-5.2,5.2l-4.9,4.9l-0.9,0.9c-2.9,2.9-6.8,3.8-10.4,2.9c-0.7,3-3.3,5.2-6.5,5.2
			c-3.7,0-6.6-3-6.6-6.6c0-3.1,2.2-5.8,5.1-6.4c-0.9-3.7,0-7.7,2.9-10.6l0.4-0.4l4.9,4.9l-0.4,0.4c-1.6,1.6-1.6,4.2,0,5.8
			c1.6,1.6,4.2,1.6,5.8,0l0.9-0.9l4.9-4.9l5.2-5.2L330.6,303.3L330.6,303.3z"/>
	</g>
</g>
</svg>
