<?xml version="1.0" encoding="utf-8"?>
<!-- Generator: Adobe Illustrator 18.0.0, SVG Export Plug-In . SVG Version: 6.00 Build 0)  -->
<!DOCTYPE svg PUBLIC "-//W3C//DTD SVG 1.1//EN" "http://www.w3.org/Graphics/SVG/1.1/DTD/svg11.dtd">
<svg version="1.1" xmlns="http://www.w3.org/2000/svg" xmlns:xlink="http://www.w3.org/1999/xlink" x="0px" y="0px"
	 viewBox="0 0 451.3 149.7" enable-background="new 0 0 451.3 149.7" xml:space="preserve">
<g id="logo">
	<path fill="#FFFFFF" d="M154,52.3v31.3c0,2.8,0.2,5.4-2.3,7.3c-2.3,1.9-6.2,2.5-10.4,2.5c-6.4,0-13.2-1.5-13.2-1.5l-1.5,4
		c0,0,9.5,2,16.4,2.1c5.8,0.1,10.9-1.2,13.7-4.4c2.3-2.6,3-5.6,2.9-10.7V52.3H154"/>
	<path fill="#FFFFFF" d="M200.7,69.6c-4.2-2.3-9.3-3.5-15.1-3.5c-5.7,0-10.8,1.2-15.1,3.5h0c-5.4,2.9-8.1,7.2-8.1,12.6
		c0,5.4,2.7,9.7,8.1,12.6c4.3,2.3,9.3,3.5,15.1,3.5c5.7,0,10.8-1.2,15-3.5c5.4-2.9,8.1-7.2,8.1-12.6C208.7,76.7,206,72.5,200.7,69.6
		 M197.4,91.6c-3.3,1.9-7.2,2.8-11.8,2.8c-4.7,0-8.7-0.9-11.9-2.7h0c-3.9-2.2-5.8-5.3-5.8-9.5c0-4.1,2-7.3,5.8-9.5
		c3.2-1.8,7.2-2.7,11.9-2.7c4.6,0,8.6,0.9,11.9,2.7c3.8,2.2,5.8,5.4,5.8,9.5C203.2,86.2,201.3,89.4,197.4,91.6z"/>
	<path fill="#FFFFFF" d="M249.9,69.6c-4.2-2.3-9.3-3.5-15.1-3.5c-5.7,0-10.8,1.2-15.1,3.5h0c-5.4,2.9-8.1,7.2-8.1,12.6
		c0,5.4,2.7,9.7,8.1,12.6c4.3,2.3,9.3,3.5,15.1,3.5c5.7,0,10.8-1.2,15-3.5c5.4-2.9,8.1-7.2,8.1-12.6
		C257.9,76.7,255.2,72.5,249.9,69.6 M246.6,91.6c-3.3,1.9-7.2,2.8-11.8,2.8c-4.7,0-8.7-0.9-11.9-2.7c-3.9-2.2-5.8-5.3-5.8-9.5
		c0-4.1,2-7.3,5.8-9.5c3.2-1.8,7.2-2.7,11.9-2.7c4.6,0,8.6,0.9,11.9,2.7c3.8,2.2,5.8,5.4,5.8,9.5C252.4,86.2,250.5,89.4,246.6,91.6z
		"/>
	<path fill="#FFFFFF" d="M317.8,68.8c-3-1.8-6.9-2.7-11.5-2.7c-5.9,0-10.6,1.8-14.2,5.4c-3.4-3.6-8.2-5.4-14.1-5.4
		c-4.8,0-8.7,1-11.7,2.9c0-0.7,0-2.5,0-2.5h-5.3v31.1h5.3V76.4c0.4-1.5,1.4-2.9,3-4.1c2.2-1.5,5-2.3,8.5-2.3c3.1,0,5.7,0.6,7.9,1.9
		c2.6,1.5,3.8,3.5,3.8,6.3v19.6h5.2V78.1c0-2.8,1.2-4.8,3.8-6.3c2.2-1.2,4.9-1.9,8-1.9c3.1,0,5.8,0.6,8,1.9c2.6,1.5,3.8,3.5,3.8,6.3
		v19.6h5.3V78.8C323.5,74.4,321.5,71,317.8,68.8"/>
	<polyline fill="#FFFFFF" points="327.7,52.3 327.7,97.7 333,97.7 333,52.3 327.7,52.3 	"/>
	<polyline fill="#FFFFFF" points="392.1,52.3 392.1,87.4 397.4,87.4 397.4,52.3 392.1,52.3 	"/>
	<path fill="#FFFFFF" d="M378.2,66.5c0,0,0,4.3,0,5.3c-4.5-3.8-10.5-5.8-17.9-5.8c-5.9,0-11,1.1-15.2,3.4c-5.2,2.9-7.9,7.1-7.9,12.7
		c0,5.5,2.7,9.8,8.1,12.6c4.2,2.3,9.3,3.4,15.2,3.4c2.9,0,5.8-0.3,8.4-1c3.7-1,6.8-2.4,9.2-4.3c0,1.1,0,4.8,0,4.8h5.3V66.5H378.2
		 M342.8,82.2c0-4.1,2-7.3,5.8-9.5c3.2-1.8,7.3-2.7,12-2.7c5.8,0,10.3,1.4,13.5,4.2c2.8,2.5,4.2,5.7,4.2,9.6c0,0,0,3.4,0,3.7
		c-2.2,2.5-5.5,4.4-9.7,5.7c-2.5,0.8-5.2,1.2-8,1.2c-4.8,0-8.8-0.9-12-2.6C344.7,89.5,342.8,86.4,342.8,82.2z"/>
	<path fill="#FFFFFF" d="M394.8,91.8c-3.7,0-4.2,1.9-4.2,3.1c0,1.2,0.6,3.1,4.2,3.1c3.7,0,4.2-2,4.2-3.1
		C399,93.8,398.4,91.8,394.8,91.8z"/>
	<path fill="#FFFFFF" d="M413.8,57.9c0,3.1-2,5.7-5.6,5.7c-3.6,0-5.6-2.6-5.6-5.7c0-3.1,2-5.7,5.6-5.7
		C411.8,52.2,413.8,54.8,413.8,57.9z M403.8,57.9c0,2.6,1.6,4.6,4.4,4.6c2.8,0,4.4-2,4.4-4.6c0-2.6-1.6-4.6-4.4-4.6
		C405.4,53.3,403.8,55.3,403.8,57.9L403.8,57.9z M409.3,58.6c2.2-0.4,2-3.7-0.5-3.7h-2.7v5.8h1.1v-2h1l1.6,2h1.2v-0.2L409.3,58.6
		L409.3,58.6z M408.8,55.9c1.3,0,1.3,1.9,0,1.9h-1.6v-1.9H408.8z"/>
</g>
<g id="brandmark">
	<path id="j-green" fill="#7AC143" d="M51,75.2l-1.4-1.4c-4.5-4.5-5.8-10.8-4.2-16.5c-4.5-1-7.8-5-7.8-9.8c0-5.5,4.5-10,10-10
		c5,0,9.1,3.6,9.9,8.4c5.4-1.3,11.3,0.2,15.5,4.4l0.6,0.6l-7.4,7.4l-0.6-0.6c-2.4-2.4-6.3-2.4-8.7,0c-2.4,2.4-2.4,6.3,0,8.7l1.4,1.4
		l7.4,7.4l7.8,7.8l-7.4,7.4l-7.8-7.8L51,75.2L51,75.2z"/>
	<path id="j-orange" fill="#F9A541" d="M59.3,67l7.8-7.8l7.4-7.4l1.4-1.4c4.4-4.4,10.8-5.8,16.4-4.2c0.7-4.9,4.9-8.6,9.9-8.6
		c5.5,0,10,4.5,10,10c0,5.1-3.8,9.3-8.7,9.9c1.6,5.6,0.2,11.9-4.2,16.3l-0.6,0.6L91.5,67l0.6-0.6c2.4-2.4,2.4-6.3,0-8.7
		c-2.4-2.4-6.3-2.4-8.7,0l-1.4,1.4l-7.4,7.4l-7.8,7.8L59.3,67L59.3,67z"/>
	<path id="j-red" fill="#F44321" d="M92.6,104.3c-5.7,1.7-12.1,0.4-16.6-4.1l-0.6-0.6l7.4-7.4l0.6,0.6c2.4,2.4,6.3,2.4,8.7,0
		c2.4-2.4,2.4-6.3,0-8.7l-1.4-1.4l-7.4-7.4l-7.8-7.8l7.4-7.4l7.8,7.8l7.4,7.4l1.5,1.5c4.2,4.2,5.7,10.2,4.4,15.7
		c4.9,0.7,8.6,4.9,8.6,9.9c0,5.5-4.5,10-10,10C97.6,112.3,93.5,108.8,92.6,104.3L92.6,104.3z"/>
	<path id="j-blue" fill="#5091CD" d="M89.7,83.5l-7.8,7.8l-7.4,7.4l-1.4,1.4c-4.3,4.3-10.3,5.7-15.7,4.4c-1,4.5-5,7.8-9.8,7.8
		c-5.5,0-10-4.5-10-10c0-4.7,3.3-8.7,7.7-9.7C43.9,87,45.3,81,49.6,76.7l0.6-0.6l7.4,7.4L57,84.1c-2.4,2.4-2.4,6.3,0,8.7
		c2.4,2.4,6.3,2.4,8.7,0l1.4-1.4l7.4-7.4l7.8-7.8L89.7,83.5L89.7,83.5z"/>
</g>
</svg>
